<svg width="60" height="70" viewBox="0 0 60 70" fill="none" xmlns="http://www.w3.org/2000/svg">
<path fill-rule="evenodd" clip-rule="evenodd" d="M30.4982 52C30.4982 52 49.9963 33.5965 49.9963 19.4908H50C50 8.72441 41.2723 0 30.5018 0C19.7314 0 11.0037 8.72441 11 19.4908C11 34.3853 30.4982 52 30.4982 52ZM39.2941 19.5C39.2941 24.3569 35.3569 28.2941 30.5 28.2941C25.6431 28.2941 21.7059 24.3569 21.7059 19.5C21.7059 14.6431 25.6431 10.7059 30.5 10.7059C35.3569 10.7059 39.2941 14.6431 39.2941 19.5Z" fill="url(#paint0_linear_1370_1172)" fill-opacity="0.8"/>
<defs>
<linearGradient id="paint0_linear_1370_1172" x1="59.5" y1="-5.99705e-07" x2="30" y2="52" gradientUnits="userSpaceOnUse">
<stop offset="0.16" stop-color="#713513"/>
<stop offset="0.44" stop-color="#BE7C4D"/>
<stop offset="0.52" stop-color="#DCAE7B"/>
<stop offset="0.56" stop-color="#BE7C4D"/>
<stop offset="0.855" stop-color="#713513"/>
</linearGradient>
</defs>
</svg>
